<?xml version="1.0" encoding="utf-8"?>
<!-- Generator: Adobe Illustrator 27.5.0, SVG Export Plug-In . SVG Version: 6.00 Build 0)  -->
<svg version="1.1" xmlns="http://www.w3.org/2000/svg" xmlns:xlink="http://www.w3.org/1999/xlink" x="0px" y="0px"
	 viewBox="0 0 500 500" style="enable-background:new 0 0 500 500;" xml:space="preserve">
<g id="Background_Simple">
	<g>
		<path style="fill:#C6FF00;" d="M453.804,236.551c-1.592-8.367-6.949-15.45-12.148-22.196
			c-29.091-37.74-58.183-75.481-87.274-113.221c-7.015-9.101-14.597-18.631-25.368-22.632c-12.438-4.621-25.571-0.86-38.36,4.003
			c-6.063,1.712-12.74,4.652-19.915,7.587c-12.261,4.132-24.853,6.908-37.601,8.875C209.443,97.806,185.165,78.567,133,89
			c-36.178,7.236-57.663,28.011-68.133,41.385c-3.389,3.347-6.104,7.45-7.913,11.912c-4.004,9.874-4.05,20.932-2.641,31.494
			c3.915,29.338,18.469,56.827,19.56,86.405c0.714,19.361-4.423,38.48-11.014,56.698c-4.564,12.614-9.902,26.316-5.592,39.019
			c4.332,12.768,17.825,20.778,31.245,22.07s26.756-2.986,39.132-8.335c12.376-5.349,24.342-11.854,37.343-15.427
			c26.549-7.298,54.9-1.74,81.232,6.307c26.332,8.047,52.204,18.622,79.584,21.53c15.24,1.618,31.942,0.362,43.729-9.434
			c18.653-15.502,17.315-44.812,30.795-64.975c8.614-12.885,22.557-20.986,34.294-31.11
			C446.357,266.415,456.702,251.777,453.804,236.551z"/>
		<path style="opacity:0.7;fill:#FFFFFF;" d="M453.804,236.551c-1.592-8.367-6.949-15.45-12.148-22.196
			c-29.091-37.74-58.183-75.481-87.274-113.221c-7.015-9.101-14.597-18.631-25.368-22.632c-12.438-4.621-25.571-0.86-38.36,4.003
			c-6.063,1.712-12.74,4.652-19.915,7.587c-12.261,4.132-24.853,6.908-37.601,8.875C209.443,97.806,185.165,78.567,133,89
			c-36.178,7.236-57.663,28.011-68.133,41.385c-3.389,3.347-6.104,7.45-7.913,11.912c-4.004,9.874-4.05,20.932-2.641,31.494
			c3.915,29.338,18.469,56.827,19.56,86.405c0.714,19.361-4.423,38.48-11.014,56.698c-4.564,12.614-9.902,26.316-5.592,39.019
			c4.332,12.768,17.825,20.778,31.245,22.07s26.756-2.986,39.132-8.335c12.376-5.349,24.342-11.854,37.343-15.427
			c26.549-7.298,54.9-1.74,81.232,6.307c26.332,8.047,52.204,18.622,79.584,21.53c15.24,1.618,31.942,0.362,43.729-9.434
			c18.653-15.502,17.315-44.812,30.795-64.975c8.614-12.885,22.557-20.986,34.294-31.11
			C446.357,266.415,456.702,251.777,453.804,236.551z"/>
	</g>
</g>
<g id="Shadow">
	<g>
		<ellipse style="fill:#C6FF00;" cx="249.5" cy="422" rx="198.5" ry="15"/>
		<ellipse style="opacity:0.9;fill:#FFFFFF;" cx="249.5" cy="422" rx="198.5" ry="15"/>
	</g>
</g>
<g id="Picture_3">
	<g>
		<rect x="220.906" y="117.918" style="opacity:0.5;fill:#C6FF00;" width="203.857" height="168.543"/>
		
			<rect x="229.389" y="106.024" style="fill:#FFFFFF;stroke:#263238;stroke-linecap:round;stroke-linejoin:round;stroke-miterlimit:10;" width="201.231" height="171.401"/>
		
			<rect x="240.628" y="115.39" style="fill:#FFFFFF;stroke:#263238;stroke-linecap:round;stroke-linejoin:round;stroke-miterlimit:10;" width="178.752" height="152.669"/>
		<path style="fill:#C6FF00;stroke:#263238;stroke-linecap:round;stroke-linejoin:round;stroke-miterlimit:10;" d="M419.38,157.376
			c-2.169,0.116-4.433,0.084-6.791-0.152c-28.061-2.806-38.681-50.293-71.594-32.599C316.554,137.764,327.472,162.798,327,184
			c-0.404,18.158-10.656,37.564-31.351,33.424c-28.214-5.643-16.622-39.103-38.056-49.82c-5.8-2.9-11.669-3.924-16.964-3.989
			v104.444H419.38V157.376z"/>
		
			<circle style="fill:#C6FF00;stroke:#263238;stroke-linecap:round;stroke-linejoin:round;stroke-miterlimit:10;" cx="277.95" cy="142.552" r="14.986"/>
	</g>
</g>
<g id="Picture_2">
	<g>
		<g>
			<rect x="183.987" y="268.804" style="opacity:0.6;fill:#C6FF00;" width="160.518" height="136.44"/>
			
				<rect x="190.051" y="259.63" style="fill:#FFFFFF;stroke:#263238;stroke-linecap:round;stroke-linejoin:round;stroke-miterlimit:10;" width="161.644" height="137.683"/>
			
				<rect x="199.079" y="267.153" style="fill:#C6FF00;stroke:#263238;stroke-linecap:round;stroke-linejoin:round;stroke-miterlimit:10;" width="143.587" height="122.636"/>
			
				<ellipse transform="matrix(0.1608 -0.987 0.987 0.1608 -116.4764 483.8584)" style="fill:#FFFFFF;stroke:#263238;stroke-linecap:round;stroke-linejoin:round;stroke-miterlimit:10;" cx="226.291" cy="310.422" rx="12.038" ry="12.038"/>
		</g>
		<path style="fill:#FFFFFF;stroke:#263238;stroke-linecap:round;stroke-linejoin:round;stroke-miterlimit:10;" d="M342.667,270.078
			c-0.676,0.204-1.348,0.405-2.04,0.626c-32.522,10.379-16.607,51.896-37.365,74.038s-46.361,9.687-73.346,4.844
			c-12.682-2.276-23.223-0.885-30.836,1.23v38.973h143.587V270.078z"/>
	</g>
</g>
<g id="Picture_1">
	<g>
		<rect x="71.624" y="80.999" style="opacity:0.6;fill:#C6FF00;" width="163.728" height="171.754"/>
		
			<rect x="78.593" y="74.179" style="fill:#FFFFFF;stroke:#263238;stroke-linecap:round;stroke-linejoin:round;stroke-miterlimit:10;" width="201.231" height="171.401"/>
		
			<rect x="89.832" y="83.545" style="fill:#FFFFFF;stroke:#263238;stroke-linecap:round;stroke-linejoin:round;stroke-miterlimit:10;" width="178.752" height="152.669"/>
		<path style="fill:#C6FF00;stroke:#263238;stroke-linecap:round;stroke-linejoin:round;stroke-miterlimit:10;" d="M268.584,114.566
			l-76.803,64.514l-23.645-28.661c-3.924-4.756-11.059-5.18-15.519-0.924L89.832,209.42v26.794h178.752V114.566z"/>
		
			<ellipse transform="matrix(0.2312 -0.9729 0.9729 0.2312 -9.9548 208.8162)" style="fill:#C6FF00;stroke:#263238;stroke-linecap:round;stroke-linejoin:round;stroke-miterlimit:10;" cx="127.155" cy="110.707" rx="14.986" ry="14.986"/>
	</g>
</g>
<g id="Plant">
	<g>
		<path style="fill:#263238;stroke:#263238;stroke-linecap:round;stroke-linejoin:round;stroke-miterlimit:10;" d="M409.932,389.674
			c-6.45,0-11.678,1.901-11.678,4.247v4.6c0,0.491,0.241,0.961,0.663,1.399l1.815,16.295c0,1.848,4.119,3.346,9.201,3.346
			c5.082,0,9.201-1.498,9.201-3.346l1.822-16.302c0.417-0.437,0.655-0.904,0.655-1.392v-4.6
			C421.61,391.575,416.381,389.674,409.932,389.674z"/>
		<g>
			<g id="XMLID_73_">
				<g id="XMLID_84_">
					<g id="XMLID_86_">
						<path id="XMLID_111_" style="fill:#263238;" d="M413.414,370.181c-0.065-0.005,1.547-4.001,1.678-4.242
							c1.512-2.783,6.07-7.272,9.556-6.616c2.511,0.473,3.786,3.076,3.092,5.428c-0.709,2.402-3.298,4.079-5.512,4.913
							C419.629,370.643,413.418,370.181,413.414,370.181z"/>
						<path id="XMLID_110_" style="fill:#263238;" d="M416.501,353.381c-0.063-0.014,2.135-3.72,2.301-3.939
							c1.916-2.522,7.102-6.268,10.448-5.092c2.411,0.848,3.277,3.614,2.234,5.834c-1.065,2.267-3.877,3.533-6.192,4.021
							C422.574,354.779,416.505,353.382,416.501,353.381z"/>
						<path id="XMLID_109_" style="fill:#263238;" d="M423.89,335.345c-0.063-0.015,2.135-3.721,2.301-3.939
							c1.916-2.522,7.102-6.268,10.448-5.092c2.411,0.848,3.277,3.614,2.234,5.834c-1.065,2.267-3.878,3.533-6.192,4.021
							C429.964,336.743,423.895,335.346,423.89,335.345z"/>
						<path id="XMLID_108_" style="fill:#263238;" d="M430.034,317.994c-0.063-0.015,2.135-3.72,2.301-3.939
							c1.916-2.522,7.102-6.268,10.448-5.092c2.411,0.848,3.277,3.614,2.234,5.834c-1.065,2.266-3.877,3.532-6.192,4.021
							C436.108,319.393,430.039,317.995,430.034,317.994z"/>
						<path id="XMLID_107_" style="fill:#263238;" d="M431.13,302.21c-0.065,0.003,1.077-4.152,1.179-4.406
							c1.182-2.938,5.194-7.921,8.732-7.67c2.549,0.181,4.115,2.621,3.696,5.036c-0.428,2.467-2.807,4.431-4.91,5.514
							C437.357,301.955,431.135,302.21,431.13,302.21z"/>
						<path id="XMLID_106_" style="fill:#263238;" d="M411.783,369.453c0.062,0.02,0.06-4.289,0.029-4.561
							c-0.363-3.146-2.914-9.013-6.392-9.707c-2.506-0.5-4.662,1.439-4.896,3.88c-0.24,2.493,1.535,5.016,3.277,6.616
							C405.845,367.56,411.779,369.451,411.783,369.453z"/>
						<path id="XMLID_91_" style="fill:#263238;" d="M416.634,350.996c0.064,0.01-0.591-4.249-0.663-4.513
							c-0.835-3.055-4.245-8.468-7.789-8.626c-2.553-0.114-4.39,2.128-4.252,4.576c0.141,2.5,2.277,4.725,4.241,6.044
							C410.478,350.025,416.629,350.996,416.634,350.996z"/>
						<path id="XMLID_90_" style="fill:#263238;" d="M423.637,333.998c0.064,0.01-0.591-4.249-0.663-4.513
							c-0.835-3.055-4.245-8.468-7.789-8.626c-2.553-0.114-4.39,2.129-4.252,4.576c0.141,2.5,2.277,4.725,4.241,6.044
							C417.481,333.026,423.632,333.997,423.637,333.998z"/>
						<path id="XMLID_89_" style="fill:#263238;" d="M429.325,318.042c0.064,0.01-0.591-4.249-0.663-4.513
							c-0.835-3.055-4.246-8.468-7.789-8.626c-2.553-0.114-4.39,2.128-4.252,4.576c0.141,2.5,2.277,4.725,4.241,6.044
							C423.169,317.07,429.321,318.041,429.325,318.042z"/>
						<path id="XMLID_88_" style="fill:#263238;" d="M430.92,302.726c0.065,0.003-1.054-4.158-1.154-4.413
							c-1.166-2.945-5.15-7.95-8.689-7.719c-2.55,0.167-4.13,2.598-3.724,5.016c0.415,2.47,2.782,4.447,4.879,5.541
							C424.694,302.436,430.915,302.725,430.92,302.726z"/>
						<path id="XMLID_87_" style="fill:#263238;" d="M429.386,288.695c0.056,0.033,0.981-4.176,1.009-4.448
							c0.322-3.151-0.907-9.429-4.155-10.855c-2.34-1.027-4.862,0.402-5.616,2.736c-0.77,2.383,0.42,5.229,1.777,7.166
							C423.994,285.569,429.382,288.693,429.386,288.695z"/>
					</g>
					<path id="XMLID_85_" style="fill:#263238;" d="M409.239,392.703c0,0,0.06-1.822,0.29-4.962
						c0.231-3.145,0.623-7.63,1.338-12.984c0.351-2.677,0.788-5.571,1.332-8.618c0.262-1.536,0.57-3.061,0.894-4.703
						c0.185-0.787,0.371-1.582,0.56-2.385c0.17-0.8,0.451-1.624,0.674-2.445c0.969-3.278,2.18-6.554,3.554-9.825
						c1.371-3.267,2.862-6.532,4.334-9.796c1.474-3.263,2.927-6.528,4.182-9.806c1.259-3.275,2.33-6.561,3.072-9.812
						c0.741-3.248,1.051-6.488,1.193-9.535c0.148-3.063,0.026-5.97-0.155-8.643c-0.174-2.676-0.5-5.117-0.805-7.275
						c-0.323-2.157-0.671-4.028-0.984-5.563c-0.632-3.069-1.125-4.794-1.125-4.794s0.53,1.713,1.23,4.771
						c0.346,1.53,0.735,3.395,1.106,5.549c0.353,2.156,0.732,4.596,0.966,7.28c0.24,2.681,0.426,5.6,0.345,8.693
						c-0.078,3.1-0.318,6.357-0.999,9.681c-0.681,3.316-1.694,6.668-2.894,10.002c-1.195,3.337-2.586,6.654-3.99,9.952
						c-1.403,3.299-2.817,6.586-4.105,9.852c-1.288,3.261-2.414,6.532-3.28,9.715c-0.199,0.804-0.447,1.564-0.603,2.382
						c-0.171,0.807-0.34,1.606-0.508,2.397c-0.267,1.536-0.552,3.119-0.774,4.623c-0.472,3.026-0.843,5.9-1.133,8.558
						c-0.593,5.315-0.885,9.766-1.045,12.877c-0.16,3.118-0.179,4.879-0.179,4.879c-0.008,0.688-0.571,1.239-1.259,1.232
						c-0.688-0.008-1.239-0.571-1.232-1.259c0-0.007,0-0.014,0-0.021L409.239,392.703z"/>
				</g>
			</g>
		</g>
		<g>
			<g id="XMLID_1_">
				<g id="XMLID_2_">
					<g id="XMLID_4_">
						<path id="XMLID_15_" style="fill:#263238;" d="M399.558,375.514c-0.046,0.029-0.926-3.488-0.956-3.717
							c-0.347-2.642,0.536-7.952,3.233-9.229c1.943-0.92,4.099,0.222,4.789,2.165c0.705,1.986-0.228,4.407-1.322,6.07
							C404.017,372.755,399.561,375.512,399.558,375.514z"/>
						<path id="XMLID_14_" style="fill:#263238;" d="M393.352,362.551c-0.05,0.021-0.387-3.588-0.382-3.819
							c0.057-2.664,1.734-7.779,4.594-8.632c2.06-0.615,4.018,0.84,4.406,2.866c0.396,2.069-0.893,4.322-2.226,5.799
							C398.177,360.5,393.355,362.55,393.352,362.551z"/>
						<path id="XMLID_13_" style="fill:#263238;" d="M389.463,346.62c-0.05,0.021-0.387-3.588-0.382-3.819
							c0.057-2.664,1.734-7.779,4.594-8.632c2.06-0.615,4.018,0.84,4.406,2.866c0.396,2.069-0.893,4.322-2.226,5.799
							C394.288,344.569,389.466,346.619,389.463,346.62z"/>
						<path id="XMLID_12_" style="fill:#263238;" d="M385.065,331.771c-0.05,0.021-0.386-3.588-0.382-3.819
							c0.057-2.664,1.734-7.779,4.594-8.632c2.06-0.615,4.018,0.84,4.406,2.866c0.396,2.069-0.893,4.322-2.226,5.799
							C389.891,329.72,385.068,331.77,385.065,331.771z"/>
						<path id="XMLID_11_" style="fill:#263238;" d="M378.006,320.486c-0.043,0.034-1.32-3.359-1.376-3.582
							c-0.648-2.585-0.381-7.961,2.151-9.539c1.825-1.137,4.097-0.251,5.006,1.601c0.928,1.891,0.28,4.404-0.616,6.181
							C382.119,317.233,378.009,320.483,378.006,320.486z"/>
						<path id="XMLID_10_" style="fill:#263238;" d="M398.088,375.824c0.052-0.017-2.08-2.949-2.236-3.119
							c-1.803-1.962-6.44-4.694-9.151-3.446c-1.953,0.899-2.462,3.285-1.414,5.062c1.069,1.815,3.525,2.655,5.502,2.883
							C393.109,377.472,398.084,375.826,398.088,375.824z"/>
						<path id="XMLID_9_" style="fill:#263238;" d="M392.263,360.862c0.049-0.025-2.503-2.6-2.683-2.744
							c-2.079-1.667-7.077-3.665-9.568-2.02c-1.794,1.185-1.936,3.62-0.631,5.218c1.332,1.632,3.887,2.09,5.876,2.016
							C387.592,363.245,392.26,360.864,392.263,360.862z"/>
						<path id="XMLID_8_" style="fill:#263238;" d="M388.624,345.828c0.049-0.025-2.503-2.6-2.683-2.744
							c-2.079-1.667-7.077-3.664-9.568-2.02c-1.794,1.185-1.936,3.62-0.631,5.218c1.332,1.632,3.887,2.091,5.876,2.016
							C383.953,348.211,388.621,345.83,388.624,345.828z"/>
						<path id="XMLID_7_" style="fill:#263238;" d="M384.606,332.155c0.049-0.025-2.503-2.6-2.683-2.744
							c-2.079-1.667-7.077-3.664-9.568-2.02c-1.794,1.185-1.936,3.62-0.631,5.218c1.332,1.632,3.887,2.091,5.876,2.017
							C379.935,334.538,384.603,332.156,384.606,332.155z"/>
						<path id="XMLID_6_" style="fill:#263238;" d="M378.118,320.94c0.046-0.03-2.773-2.309-2.968-2.433
							c-2.25-1.428-7.437-2.865-9.732-0.957c-1.653,1.374-1.526,3.81-0.054,5.255c1.503,1.476,4.093,1.651,6.061,1.359
							C373.736,323.822,378.114,320.943,378.118,320.94z"/>
						<path id="XMLID_5_" style="fill:#263238;" d="M370.136,312.148c0.054-0.006-1.397-3.328-1.513-3.527
							c-1.339-2.304-5.28-5.97-8.196-5.334c-2.101,0.458-3.111,2.678-2.47,4.639c0.654,2.003,2.871,3.351,4.753,3.999
							C364.92,312.687,370.132,312.149,370.136,312.148z"/>
					</g>
					<path id="XMLID_3_" style="fill:#263238;" d="M407.853,392.908c0,0-0.86-1.27-2.256-3.521c-1.398-2.255-3.349-5.502-5.509-9.5
						c-1.085-1.996-2.218-4.182-3.355-6.525c-0.581-1.175-1.126-2.365-1.717-3.643c-0.263-0.627-0.53-1.261-0.798-1.9
						c-0.28-0.629-0.497-1.329-0.75-1.998c-0.962-2.711-1.757-5.54-2.439-8.445c-0.682-2.902-1.282-5.862-1.894-8.811
						c-0.61-2.95-1.236-5.891-2.003-8.743c-0.762-2.852-1.658-5.618-2.761-8.198c-1.102-2.578-2.493-4.936-3.903-7.081
						c-1.414-2.158-2.934-4.077-4.379-5.807c-1.442-1.736-2.871-3.236-4.146-4.554c-1.286-1.309-2.448-2.41-3.42-3.3
						c-1.948-1.777-3.137-2.707-3.137-2.707s1.208,0.904,3.197,2.639c0.992,0.87,2.179,1.947,3.497,3.23
						c1.307,1.293,2.771,2.766,4.258,4.478c1.489,1.706,3.06,3.601,4.533,5.747c1.48,2.149,2.927,4.485,4.107,7.084
						c1.176,2.594,2.144,5.377,2.976,8.239c0.836,2.863,1.53,5.808,2.205,8.747c0.677,2.94,1.339,5.876,2.077,8.736
						c0.735,2.857,1.587,5.64,2.571,8.235c0.262,0.646,0.469,1.286,0.767,1.919c0.283,0.634,0.563,1.262,0.84,1.883
						c0.578,1.177,1.167,2.396,1.759,3.53c1.175,2.293,2.344,4.433,3.461,6.386c2.225,3.911,4.227,7.085,5.656,9.282
						c1.433,2.201,2.291,3.41,2.291,3.41c0.335,0.472,0.224,1.126-0.248,1.461c-0.472,0.335-1.126,0.224-1.461-0.248
						c-0.004-0.005-0.007-0.01-0.01-0.015L407.853,392.908z"/>
				</g>
			</g>
		</g>
	</g>
</g>
<g id="Character">
	<g>
		<path style="fill:#C6FF00;stroke:#263238;stroke-linecap:round;stroke-linejoin:round;stroke-miterlimit:10;" d="M126.571,189.328
			c0,0,2.069,6.827,2.689,8.896c0.621,2.069,4.758,0,8.896-1.448c4.138-1.448,13.654-6.206,15.723-4.344
			c2.069,1.862,18.205,43.031,17.378,46.134c-0.827,3.103-1.862,4.965-7.241,3.724c-5.379-1.241-7.448-6.827-7.448-6.827
			l-2.689,9.516c0,0,5.379,8.896,8.068,18.619c2.689,9.723,8.275,41.169,8.689,50.064c0.414,8.896,3.103,28.756,3.103,28.756
			s-2.069,1.862-12.619,3.931c-10.551,2.069-15.93,2.069-15.93,2.069l0.207,3.31c0,0-9.516,2.483-21.722,0.414
			c-12.206-2.069-19.86-5.586-19.86-5.586s8.275-33.928,8.068-41.376c-0.207-7.448-2.069-13.654-1.655-20.688
			c0.414-7.034,4.965-17.791,4.965-17.791s3.31-6.206-1.448-18.205c-4.758-11.999-12.62-29.997-14.688-35.376
			c-2.069-5.379,14.895-10.758,16.964-11.585c2.069-0.827-8.482-19.447-6-21.515C112.504,177.949,126.571,189.328,126.571,189.328z"
			/>
		<g>
			<g>
				<defs>
					<path id="XMLID_19_" d="M98.022,212.498c0,0-2.069,2.276-1.241,6.827s11.378,35.376,14.068,40.341
						c2.689,4.965,5.172,4.138,7.448,2.896c2.276-1.241,22.343-14.275,28.135-17.792c5.793-3.517,16.136-9.516,16.136-9.516
						s9.516,4.344,9.31,2.276c-0.207-2.069,0.827-5.999-2.069-9.103c-2.896-3.103-8.068-0.827-10.344,0.827
						c-2.276,1.655-18.619,8.482-25.86,10.965c-7.241,2.482-10.965,3.517-10.965,3.517l-9.516-19.653"/>
				</defs>
				<use xlink:href="#XMLID_19_"  style="overflow:visible;fill:#FFFFFF;"/>
				<clipPath id="XMLID_00000144309871540607749860000000962869817352840377_">
					<use xlink:href="#XMLID_19_"  style="overflow:visible;"/>
				</clipPath>
				<path style="opacity:0.5;clip-path:url(#XMLID_00000144309871540607749860000000962869817352840377_);fill:#C6FF00;" d="
					M117.199,256.828c-3.354-0.839-6.709-7.548-6.709-7.548s2.935-2.935,6.29-6.709c1.523-1.714,2.351-3.597,2.805-5.146
					l-6.461-13.342l-0.003-0.002l-11.437,0.88c0,0-0.962,1.078-2.449,2.781c3.501,10.905,9.65,28.3,11.613,31.924
					c2.689,4.965,5.172,4.138,7.448,2.896c2.276-1.241,22.343-14.275,28.135-17.792c5.793-3.517,16.136-9.516,16.136-9.516
					s3.633,1.658,6.361,2.437c-1.134-3.394-2.252-6.441-2.252-6.441h-11.052c-0.763,0.355-1.604,0.737-2.508,1.138l-0.696,5.571"/>
				<path style="opacity:0.5;clip-path:url(#XMLID_00000144309871540607749860000000962869817352840377_);fill:#C6FF00;" d="
					M143.532,345.174c0,0-5.62,13.425-5.62,20.606c0,7.181,0.312,34.343-1.249,39.65c-1.561,5.307-1.561,7.805,0.624,8.742
					c-0.038-4.088,1.715-16.877,5.07-34.488c3.354-17.611,2.096-24.739,2.096-24.739s6.29-1.258,9.225-2.097
					c1.165-0.333,2.856-0.996,4.474-1.674c0.793-3.487,1.301-6.192,1.301-6.937C159.455,342.052,143.532,345.174,143.532,345.174z"
					/>
				
					<use xlink:href="#XMLID_19_"  style="overflow:visible;fill:none;stroke:#263238;stroke-linecap:round;stroke-linejoin:round;stroke-miterlimit:10;"/>
			</g>
		</g>
		<path style="fill:#FFFFFF;stroke:#263238;stroke-linecap:round;stroke-linejoin:round;stroke-miterlimit:10;" d="M169.809,228.428
			c-2.896-3.103-8.068-0.827-10.344,0.828c-0.18,0.131-0.458,0.298-0.804,0.489c0.802,0.957,1.734,2.302,2.252,3.855
			c0.256,0.767,0.46,1.534,0.624,2.254c0.651-0.379,1.031-0.599,1.031-0.599s9.516,4.344,9.31,2.276
			C171.671,235.461,172.705,231.531,169.809,228.428z"/>
		<g>
			<defs>
				<path id="XMLID_17_" d="M137.186,197.125c-3.793,1.397-7.354,3.005-7.926,1.098c-0.621-2.069-2.689-8.896-2.689-8.896
					s-14.068-11.378-16.55-9.31c-2.483,2.069,8.068,20.688,5.999,21.515c-0.736,0.294-3.358,1.167-6.336,2.408
					c1.333,2.185,4.452,6.102,11.301,10.212c10.344,6.206,12.62,7.861,12.62,7.861L137.186,197.125z"/>
			</defs>
			<use xlink:href="#XMLID_17_"  style="overflow:visible;fill:#FFFFFF;"/>
			<clipPath id="XMLID_00000151531169830215411100000006933569744504348572_">
				<use xlink:href="#XMLID_17_"  style="overflow:visible;"/>
			</clipPath>
			<path style="opacity:0.5;clip-path:url(#XMLID_00000151531169830215411100000006933569744504348572_);fill:#C6FF00;" d="
				M126.571,189.328c0,0-12.814-10.362-16.136-9.501c-0.185,0.12-0.367,0.239-0.548,0.358c-1.198,1.713,2.385,9.482,4.668,15.166
				c2.172,0.381,4.04,0.508,5.16,0.259c2.216-0.492,5.437-2.139,7.724-3.416C126.954,190.591,126.571,189.328,126.571,189.328z"/>
			
				<use xlink:href="#XMLID_17_"  style="overflow:visible;fill:none;stroke:#263238;stroke-linecap:round;stroke-linejoin:round;stroke-miterlimit:10;"/>
		</g>
		<g>
			<path style="fill:#263238;stroke:#263238;stroke-linecap:round;stroke-linejoin:round;stroke-miterlimit:10;" d="
				M128.375,161.743c0,0,4.525-8.153,0.171-14.82c-6.385-9.776-20.293-9.366-31.221-1.561
				c-10.715,7.654-11.422,22.558-11.675,31.422c-0.253,8.864,4.045,16.921-0.758,23.636c-4.803,6.715-11.882,13.43-9.607,26.054
				s8.343,16.921,25.786,16.921s25.335-17.174,21.542-28.723c-3.792-11.55-7.805-21.529-7.805-25.289s-10.956-25.223-1.35-28.178
				C123.066,158.251,128.375,161.743,128.375,161.743z"/>
			<path style="fill:none;stroke:#FFFFFF;stroke-width:0.5;stroke-linecap:round;stroke-linejoin:round;stroke-miterlimit:10;" d="
				M122.002,153.721c0,0-6.284-4.189-12.866,1.197c-6.583,5.386-9.276,13.764-9.276,22.741c0,8.977,8.977,27.229,11.67,38.6
				c2.693,11.37,0.299,26.032-16.457,26.631"/>
			<path style="fill:none;stroke:#FFFFFF;stroke-width:0.5;stroke-linecap:round;stroke-linejoin:round;stroke-miterlimit:10;" d="
				M124.396,154.021c0,0-2.394-9.575-15.859-7.78c-13.465,1.795-18.851,22.741-17.055,35.607
				c1.795,12.867,17.055,35.906,18.252,43.686c1.197,7.78-1.491,11.5-1.491,11.5"/>
			<path style="fill:none;stroke:#FFFFFF;stroke-width:0.5;stroke-linecap:round;stroke-linejoin:round;stroke-miterlimit:10;" d="
				M94.474,192.62c0,0,2.693,6.583,0.898,21.245c-1.795,14.662-11.969,18.552-14.063,13.764c-2.095-4.788,0.898-8.677,3.89-8.977"/>
		</g>
		<g>
			<path style="fill:#FFFFFF;stroke:#263238;stroke-linecap:round;stroke-linejoin:round;stroke-miterlimit:10;" d="
				M132.911,192.605c0,0-3.53-0.161-4.012,0.963c-0.481,1.123,4.814,1.765,4.814,1.765L132.911,192.605z"/>
			<g>
				<defs>
					<path id="XMLID_18_" d="M131.743,188.293c0,0-6.206,5.586-5.172,7.034c1.034,1.448,5.172-3.931,5.172-3.931l2.276,1.241
						c0,0-2.276,1.655-2.896,3.103c-0.621,1.448,0,2.483,1.241,3.931c1.241,1.448,1.448,3.31,3.103,3.31s2.069-2.276,2.069-2.276
						s1.655,2.896,2.689,3.724c1.034,0.827,3.931,1.034,3.931,1.034s10.551,28.963,13.033,33.307
						c2.482,4.344,3.103,7.654,10.344,6.827c7.241-0.827,4.758-6.827,2.482-12.206c-2.276-5.379-16.55-23.998-20.274-28.342
						c-3.724-4.344-5.379-6.413-9.723-11.792C135.674,187.88,132.985,187.052,131.743,188.293z"/>
				</defs>
				<use xlink:href="#XMLID_18_"  style="overflow:visible;fill:#FFFFFF;"/>
				<clipPath id="XMLID_00000174591444635806353500000001261545085388727231_">
					<use xlink:href="#XMLID_18_"  style="overflow:visible;"/>
				</clipPath>
				<path style="opacity:0.5;clip-path:url(#XMLID_00000174591444635806353500000001261545085388727231_);fill:#C6FF00;" d="
					M163,239.333c-4-5-16-31.333-18.844-33.869c0,0,10.551,28.963,13.033,33.307c2.482,4.345,3.103,7.655,10.344,6.827
					c1.554-0.178,2.657-0.595,3.414-1.191C168.647,243.722,165.363,242.286,163,239.333z"/>
				
					<use xlink:href="#XMLID_18_"  style="overflow:visible;fill:none;stroke:#263238;stroke-linecap:round;stroke-linejoin:round;stroke-miterlimit:10;"/>
			</g>
			<g>
				<path style="fill:#C6FF00;" d="M137.667,199c-2.333,0-2.2,3.982-2.2,3.982c1.655,0,2.069-2.276,2.069-2.276
					s1.655,2.896,2.689,3.724c1.034,0.827,3.931,1.034,3.931,1.034C141.312,202.928,140,199,137.667,199z"/>
			</g>
			<path style="fill:none;stroke:#263238;stroke-width:0.5;stroke-linecap:round;stroke-linejoin:round;stroke-miterlimit:10;" d="
				M132.109,199.184c0,0-0.481-2.247,0-2.888c0.481-0.642,2.567-2.568,2.567-2.568"/>
			<path style="fill:none;stroke:#263238;stroke-width:0.5;stroke-linecap:round;stroke-linejoin:round;stroke-miterlimit:10;" d="
				M133.393,201.11c0,0-0.642-3.209,0-3.691c0.642-0.481,3.37-2.086,3.37-2.086"/>
		</g>
		<g>
			<g>
				<defs>
					<path id="XMLID_20_" d="M143.532,345.174c0,0-5.62,13.425-5.62,20.606c0,7.181,0.312,34.343-1.249,39.65
						s-1.561,7.805,0.624,8.742c2.185,0.937,7.181,0.624,8.43,1.561c1.249,0.937,7.493,3.122,9.054,1.873
						c1.561-1.249-9.366-7.805-10.615-10.303c-1.249-2.498,4.683-29.347,7.805-35.591c3.122-6.244,7.493-25.289,7.493-27.474
						C159.455,342.052,143.532,345.174,143.532,345.174z"/>
				</defs>
				<use xlink:href="#XMLID_20_"  style="overflow:visible;fill:#FFFFFF;"/>
				<clipPath id="XMLID_00000145056767207513250280000007441196050220385192_">
					<use xlink:href="#XMLID_20_"  style="overflow:visible;"/>
				</clipPath>
				<path style="opacity:0.5;clip-path:url(#XMLID_00000145056767207513250280000007441196050220385192_);fill:#C6FF00;" d="
					M143.532,345.174c0,0-5.62,13.425-5.62,20.606c0,7.181,0.312,34.343-1.249,39.65c-1.561,5.307-1.561,7.805,0.624,8.742
					c-0.038-4.088,1.715-16.877,5.07-34.488c3.354-17.611,2.096-24.739,2.096-24.739s6.29-1.258,9.225-2.097
					c1.165-0.333,2.856-0.996,4.474-1.674c0.793-3.487,1.301-6.192,1.301-6.937C159.455,342.052,143.532,345.174,143.532,345.174z"
					/>
				
					<use xlink:href="#XMLID_20_"  style="overflow:visible;fill:none;stroke:#263238;stroke-linecap:round;stroke-linejoin:round;stroke-miterlimit:10;"/>
			</g>
			<path style="fill:#C6FF00;stroke:#263238;stroke-linecap:round;stroke-linejoin:round;stroke-miterlimit:10;" d="
				M144.156,407.303l-2.498,3.122l-5.457-3.322c-1.069,4.168-0.855,6.236,1.086,7.068c2.185,0.937,7.181,0.624,8.43,1.561
				c1.249,0.937,7.493,3.122,9.054,1.873C156.332,416.357,145.405,409.801,144.156,407.303z"/>
		</g>
		<g>
			<g>
				<defs>
					<path id="XMLID_21_" d="M111.687,346.423c0,0-4.995,5.932-6.869,17.796c-1.873,11.864-2.185,47.143-2.498,52.138
						s-0.625,5.932,2.498,7.493c3.122,1.561,10.303,4.995,12.176,4.995c1.873,0,2.498-1.249,0-5.62
						c-2.498-4.371-9.366-6.244-9.366-9.991c0-3.746,15.61-47.143,17.483-54.012c1.873-6.868,1.873-11.552,1.873-11.552
						L111.687,346.423z"/>
				</defs>
				<use xlink:href="#XMLID_21_"  style="overflow:visible;fill:#FFFFFF;"/>
				<clipPath id="XMLID_00000046340547806274495230000010403950163958567613_">
					<use xlink:href="#XMLID_21_"  style="overflow:visible;"/>
				</clipPath>
				<path style="opacity:0.5;clip-path:url(#XMLID_00000046340547806274495230000010403950163958567613_);fill:#C6FF00;" d="
					M104.818,364.219c-1.873,11.864-2.185,47.143-2.498,52.138c-0.306,4.904-0.605,5.897,2.337,7.409
					c0.083-5.309,0.352-15.839,1.22-28.568c1.258-18.449,5.451-41.511,5.451-41.511s3.354,1.258,9.644,2.096
					c2.118,0.283,3.704,0.372,4.888,0.37c1.119-5.152,1.124-8.482,1.124-8.482l-15.298-1.249
					C111.687,346.423,106.692,352.355,104.818,364.219z"/>
				
					<use xlink:href="#XMLID_21_"  style="overflow:visible;fill:none;stroke:#263238;stroke-linecap:round;stroke-linejoin:round;stroke-miterlimit:10;"/>
			</g>
			<path style="fill:#C6FF00;stroke:#263238;stroke-linecap:round;stroke-linejoin:round;stroke-miterlimit:10;" d="
				M116.994,428.846c1.873,0,2.498-1.249,0-5.62c-1.772-3.101-5.734-4.946-7.892-7.094l-2.723,2.723l-4.074-2.263
				c-0.306,4.783-0.558,5.723,2.513,7.259C107.94,425.411,115.121,428.846,116.994,428.846z"/>
		</g>
		<g>
			<g>
				<defs>
					<path id="XMLID_16_" d="M129.261,159.537c0,0-0.207-2.896-2.689-4.758c-2.482-1.862-11.585-2.276-15.516,2.689
						c-3.931,4.965-2.276,17.171-1.655,18.412c0,0-5.172-3.103-5.586,1.655c-0.414,4.758,1.862,7.034,4.344,7.034
						c2.483,0,3.31-1.862,3.31-1.862s5.379,6.62,12.826,7.448c7.448,0.827,11.585-7.448,12.619-12.413
						C137.95,172.777,130.295,164.916,129.261,159.537z"/>
				</defs>
				<use xlink:href="#XMLID_16_"  style="overflow:visible;fill:#FFFFFF;"/>
				<clipPath id="XMLID_00000023971950570133389360000015265210407632618628_">
					<use xlink:href="#XMLID_16_"  style="overflow:visible;"/>
				</clipPath>
				<path style="opacity:0.5;clip-path:url(#XMLID_00000023971950570133389360000015265210407632618628_);fill:#C6FF00;" d="
					M119.715,184.708c-5.032-3.354-8.386-10.483-9.644-15.514c-0.928-3.711,0.196-9.01,0.85-11.54
					c-3.754,5.074-2.134,17.001-1.521,18.227c0,0-5.172-3.103-5.586,1.655c-0.414,4.758,1.862,7.034,4.344,7.034
					c2.483,0,3.31-1.862,3.31-1.862s5.379,6.62,12.826,7.448c2.516,0.279,4.645-0.493,6.414-1.813
					C128.225,188.346,124.071,187.611,119.715,184.708z"/>
				
					<use xlink:href="#XMLID_16_"  style="overflow:visible;fill:none;stroke:#263238;stroke-linecap:round;stroke-linejoin:round;stroke-miterlimit:10;"/>
			</g>
			<path style="fill:none;stroke:#263238;stroke-linecap:round;stroke-linejoin:round;stroke-miterlimit:10;" d="M126.254,162.675
				c0,0-0.542,2.71,0.271,4.743c0.813,2.033,3.93,4.201,3.523,5.014c-0.407,0.813-1.762,1.084-1.762,1.084"/>
			<path style="fill:none;stroke:#263238;stroke-linecap:round;stroke-linejoin:round;stroke-miterlimit:10;" d="M128.151,179.614
				c0,0-1.897,0.813-4.743-0.949"/>
			<path style="fill:#263238;" d="M120.62,167.432c0.14,0.849-0.076,1.592-0.482,1.659c-0.406,0.067-0.849-0.567-0.988-1.417
				c-0.14-0.849,0.076-1.592,0.482-1.659C120.038,165.949,120.48,166.583,120.62,167.432z"/>
			<path style="fill:#263238;" d="M129.188,164.081c0.271,0.817,0.174,1.584-0.217,1.714c-0.391,0.13-0.927-0.428-1.198-1.244
				c-0.271-0.817-0.174-1.584,0.217-1.714C128.38,162.706,128.917,163.264,129.188,164.081z"/>
			<path style="fill:none;stroke:#263238;stroke-linecap:round;stroke-linejoin:round;stroke-miterlimit:10;" d="M116.226,165.792
				c0,0-0.407-2.981,1.897-3.93c2.304-0.949,3.523-0.271,3.523-0.271"/>
			<path style="fill:none;stroke:#263238;stroke-linecap:round;stroke-linejoin:round;stroke-miterlimit:10;" d="M125.983,161.455
				c0,0,0.245-2.419,1.762-2.168"/>
		</g>
		<g>
			<path style="fill:#263238;stroke:#263238;stroke-linecap:round;stroke-linejoin:round;stroke-miterlimit:10;" d="M145.19,348.417
				c0,0,5.379,0,15.93-2.069c10.551-2.069,12.62-3.931,12.62-3.931s-2.689-19.86-3.103-28.756c-0.409-8.801-5.879-39.661-8.6-49.733
				c-3.242,2.284-8.255,4.794-16.007,6.941c-14.333,3.969-25.698-0.47-31.143-3.421c-1.028,2.556-4.31,11.12-4.659,17.043
				c-0.414,7.034,1.448,13.24,1.655,20.688c0.207,7.448-8.068,41.376-8.068,41.376s7.655,3.517,19.86,5.586
				c12.206,2.069,21.722-0.414,21.722-0.414L145.19,348.417z"/>
			<polyline style="fill:none;stroke:#FFFFFF;stroke-linecap:round;stroke-linejoin:round;stroke-miterlimit:10;" points="
				145.19,348.417 144.156,288.04 149.776,278.362 			"/>
			<path style="fill:none;stroke:#FFFFFF;stroke-width:0.5;stroke-linecap:round;stroke-linejoin:round;stroke-miterlimit:10;" d="
				M126.917,273.811c0,0-0.354,3.189-2.834,6.023c-2.48,2.834-4.606,3.543-4.606,3.543"/>
			<path style="fill:none;stroke:#FFFFFF;stroke-width:0.5;stroke-linecap:round;stroke-linejoin:round;stroke-miterlimit:10;" d="
				M116.987,344.614c-0.426,2.887-0.698,4.659-0.698,4.659"/>
			<path style="fill:none;stroke:#FFFFFF;stroke-width:0.5;stroke-linecap:round;stroke-linejoin:round;stroke-miterlimit:10;" d="
				M120.54,272.394c0,0-2.834,9.211-1.771,19.131c1.063,9.92,1.771,27.28,0.354,37.908c-0.552,4.14-1.104,8.065-1.572,11.315"/>
			<path style="fill:none;stroke:#FFFFFF;stroke-width:0.5;stroke-linecap:round;stroke-linejoin:round;stroke-miterlimit:10;" d="
				M106.368,341.125c0,0,10.983,8.857,36.491,6.023"/>
			<path style="fill:none;stroke:#FFFFFF;stroke-width:0.5;stroke-linecap:round;stroke-linejoin:round;stroke-miterlimit:10;" d="
				M148.174,343.959c0,0,10.983,0.708,23.737-6.731"/>
		</g>
	</g>
</g>
</svg>
